<svg width="24" height="24" viewBox="0 0 24 24" fill="none" xmlns="http://www.w3.org/2000/svg">
<path d="M18.32 12C20.92 12 22 11 21.04 7.72C20.39 5.51 18.49 3.61 16.28 2.96C13 2 12 3.08 12 5.68V8.56C12 11 13 12 15 12H18.32Z" stroke="black" stroke-width="1.5" stroke-linecap="round" stroke-linejoin="round"/>
<path d="M20 14.7C19.5339 17.0141 18.186 19.0561 16.2414 20.3942C14.2967 21.7323 11.9078 22.2616 9.58001 21.87C5.79001 21.26 2.74 18.21 2.12 14.42C1.73276 12.0983 2.26019 9.71681 3.59155 7.77571C4.92291 5.83461 6.95461 4.48489 9.26001 4.00999" stroke="black" stroke-width="1.5" stroke-linecap="round" stroke-linejoin="round"/>
</svg>
